<svg id="Layer_1_copy_5" data-name="Layer 1 copy 5" xmlns="http://www.w3.org/2000/svg" viewBox="0 0 29.7 29.7"><defs><style>.cls-1{fill:#61dafb;}</style></defs><title>_01_languages logos [Recovered]</title><path class="cls-1" d="M28.21,15c0-1.78-2.22-3.46-5.63-4.5.79-3.48.44-6.24-1.1-7.13A2.4,2.4,0,0,0,20.25,3V4.22a2.63,2.63,0,0,1,.66.14c.75.43,1.07,2.06.82,4.15-.06.52-.16,1.06-.28,1.61A26.58,26.58,0,0,0,18,9.53a26.75,26.75,0,0,0-2.28-2.74A14.34,14.34,0,0,1,20.3,4.22V3h0c-1.51,0-3.49,1.08-5.48,2.94-2-1.86-4-2.92-5.48-2.92V4.28c1.13,0,2.81.9,4.59,2.55a25.81,25.81,0,0,0-2.26,2.73,25.52,25.52,0,0,0-3.48.6C8.07,9.6,8,9.07,7.91,8.57c-.26-2.09.06-3.71.8-4.14a1.22,1.22,0,0,1,.63-.14V3.06h0a2.44,2.44,0,0,0-1.24.31C6.56,4.25,6.22,7,7,10.48c-3.4,1-5.61,2.73-5.61,4.5S3.62,18.44,7,19.48c-.79,3.48-.44,6.24,1.1,7.13a2.4,2.4,0,0,0,1.23.31c1.5,0,3.47-1.07,5.46-2.93,2,1.85,4,2.91,5.46,2.91a2.44,2.44,0,0,0,1.24-.31c1.54-.89,1.88-3.65,1.09-7.11C26,18.43,28.21,16.75,28.21,15Zm-7.08-3.66c-.2.71-.46,1.44-.74,2.17-.22-.44-.46-.88-.72-1.32s-.52-.87-.79-1.28C19.66,11,20.41,11.14,21.13,11.32Zm-2.51,5.84c-.43.74-.87,1.44-1.32,2.1-.82.07-1.65.11-2.48.11s-1.66,0-2.47-.1q-.68-1-1.33-2.08T9.88,15c.34-.73.72-1.47,1.14-2.19s.87-1.44,1.32-2.1c.82-.07,1.65-.11,2.48-.11s1.66,0,2.47.1q.68,1,1.33,2.08T19.75,15C19.41,15.71,19,16.44,18.62,17.16Zm1.77-.71c.3.73.55,1.47.76,2.18-.72.18-1.48.32-2.26.44.27-.42.54-.86.79-1.3S20.16,16.89,20.39,16.45ZM14.83,22.3a22.61,22.61,0,0,1-1.52-1.76c.49,0,1,0,1.51,0s1,0,1.52,0A21.41,21.41,0,0,1,14.83,22.3Zm-4.08-3.23C10,19,9.22,18.81,8.5,18.63c.2-.71.46-1.44.74-2.17.22.44.46.88.72,1.32S10.48,18.65,10.75,19.07ZM14.8,7.65a22.61,22.61,0,0,1,1.52,1.76c-.49,0-1,0-1.51,0s-1,0-1.52,0A21.41,21.41,0,0,1,14.8,7.65Zm-4.06,3.23c-.27.42-.54.86-.79,1.3s-.49.88-.71,1.32c-.3-.73-.55-1.47-.76-2.18C9.2,11.15,10,11,10.74,10.89Zm-5,6.87c-1.94-.83-3.2-1.91-3.2-2.78s1.26-2,3.2-2.78c.47-.2,1-.38,1.52-.55A26.34,26.34,0,0,0,8.53,15a26,26,0,0,0-1.22,3.32C6.77,18.14,6.26,18,5.78,17.75Zm3,7.84c-.75-.43-1.07-2.06-.82-4.15.06-.52.16-1.06.28-1.61a26.58,26.58,0,0,0,3.48.6A26.75,26.75,0,0,0,14,23.17c-1.79,1.66-3.47,2.57-4.61,2.57A1.31,1.31,0,0,1,8.73,25.59Zm13-4.18c.26,2.1-.06,3.72-.8,4.16a1.22,1.22,0,0,1-.63.14c-1.14,0-2.82-.9-4.61-2.56A25.9,25.9,0,0,0,18,20.42a25.61,25.61,0,0,0,3.49-.6A15.35,15.35,0,0,1,21.74,21.41Zm2.11-3.66c-.47.2-1,.38-1.52.55A26.34,26.34,0,0,0,21.1,15a26,26,0,0,0,1.22-3.32c.54.17,1.06.36,1.54.56,1.94.83,3.2,1.91,3.2,2.78S25.79,16.93,23.85,17.75Z"/><circle class="cls-1" cx="14.81" cy="14.98" r="2.51"/></svg>